<?xml version="1.0" standalone="no"?><!DOCTYPE svg PUBLIC "-//W3C//DTD SVG 1.1//EN" "http://www.w3.org/Graphics/SVG/1.1/DTD/svg11.dtd"><svg t="1588769324824" class="icon" viewBox="0 0 1024 1024" version="1.1" xmlns="http://www.w3.org/2000/svg" p-id="2895" xmlns:xlink="http://www.w3.org/1999/xlink" width="200" height="200"><defs><style type="text/css"></style></defs><path d="M595.712 526.112l-205.44-197.28c-8.864-10.432-7.504-25.968 3.024-34.688 10.528-8.736 26.24-7.36 35.088 3.072l205.424 197.28c8.864 10.432 7.504 25.968-3.008 34.688S604.56 536.56 595.712 526.112z" p-id="2896"></path><path d="M390.256 695.68l205.44-197.28c8.864-10.432 24.56-11.808 35.088-3.088 10.528 8.736 11.872 24.272 3.024 34.688l-205.44 197.28c-8.848 10.432-24.56 11.808-35.088 3.072C382.752 721.664 381.392 706.128 390.256 695.68z" p-id="2897"></path></svg>