<?xml version="1.0" standalone="no"?><!DOCTYPE svg PUBLIC "-//W3C//DTD SVG 1.1//EN" "http://www.w3.org/Graphics/SVG/1.1/DTD/svg11.dtd"><svg t="1588841408501" class="icon" viewBox="0 0 1024 1024" version="1.1" xmlns="http://www.w3.org/2000/svg" p-id="2502" xmlns:xlink="http://www.w3.org/1999/xlink" width="200" height="200"><defs><style type="text/css"></style></defs><path d="M598.293333 746.005333l-60.714666 49.301334V516.266667a25.6 25.6 0 0 0-51.157334 0v279.04l-60.714666-49.301334a25.6 25.6 0 1 0-32.256 39.744l102.421333 83.2a25.621333 25.621333 0 0 0 32.256 0l102.4-83.2a25.6 25.6 0 1 0-32.234667-39.744z"  p-id="2503"></path><path d="M810.666667 405.333333c-1.130667 0-2.24 0-3.328 0.042667a298.496 298.496 0 0 0-565.418667-84.906667A213.333333 213.333333 0 0 0 256 746.666667h88.064a68.416 68.416 0 0 1 65.514667-49.045334 68.48 68.48 0 0 1 34.176 9.173334V516.266667a68.266667 68.266667 0 0 1 136.490666 0v190.549333a68.266667 68.266667 0 0 1 87.168 16.085333A67.541333 67.541333 0 0 1 679.957333 746.666667H810.666667a170.666667 170.666667 0 0 0 0-341.333334z"  p-id="2504"></path></svg>