<?xml version="1.0" standalone="no"?><!DOCTYPE svg PUBLIC "-//W3C//DTD SVG 1.1//EN" "http://www.w3.org/Graphics/SVG/1.1/DTD/svg11.dtd"><svg t="1591775994114" class="icon" viewBox="0 0 1024 1024" version="1.1" xmlns="http://www.w3.org/2000/svg" p-id="3497" xmlns:xlink="http://www.w3.org/1999/xlink" width="200" height="200"><defs><style type="text/css"></style></defs><path d="M511.23712 259.4816a15.34976 15.34976 0 0 1-13.45536-7.93088c-1.85856-3.35872-45.00992-82.97984-5.78048-148.6592 31.52896-52.78208 105.6768-78.88896 220.4672-77.60896a15.37536 15.37536 0 0 1 15.19104 15.53408 15.37024 15.37024 0 0 1-15.36 15.18592h-0.16896c-101.6576-1.29536-168.59136 20.52096-193.75104 62.6432-30.27968 50.68288 5.91872 117.37088 6.28224 118.03648a15.34976 15.34976 0 0 1-6.01088 20.87424 15.2576 15.2576 0 0 1-7.41376 1.92512z" fill="#40220F" p-id="3498"></path><path d="M905.11872 606.83776c0 218.55744-177.17248 395.69408-395.70944 395.69408-218.54208 0-395.70944-177.14176-395.70944-395.69408 0-218.53696 177.16736-395.70432 395.70944-395.70432 218.54208 0 395.70944 177.17248 395.70944 395.70432z" fill="#EE7A15" p-id="3499"></path><path d="M526.208 211.67616s-119.3728 72.15104-205.34272 19.4048c-82.7904-50.79552-71.19872-90.09152-147.85024-151.51616 117.95968-22.80448 239.11936-53.81632 353.19296 132.11136z" fill="#639635" p-id="3500"></path></svg>